name Walk3.mot
datacolumns 19
datarows 10
range 1.59100000 1.60000000
endheader

                time	   L_ground_force_vx	   L_ground_force_vy	   L_ground_force_vz	   L_ground_force_px	   L_ground_force_py	   L_ground_force_pz	   R_ground_force_vx	   R_ground_force_vy	   R_ground_force_vz	   R_ground_force_px	   R_ground_force_py	   R_ground_force_pz	   L_ground_torque_x	   L_ground_torque_y	   L_ground_torque_z	   R_ground_torque_x	   R_ground_torque_y	   R_ground_torque_z	
          1.59100000	         39.42665063	        933.87220472	         79.78238940	         -0.24276429	          0.00000000	         -0.06408786	         -0.01794618	          0.53957938	          0.02142010	          0.00030126	          0.00000000	          0.00016408	          0.00000000	         -3.82770699	          0.00000000	          0.00000000	          0.00505765	          0.00000000	
          1.59200000	         40.01774869	        935.30723669	         80.08440355	         -0.24232439	          0.00000000	         -0.06420702	         -0.01980670	          0.56937234	          0.02224466	          0.00031380	          0.00000000	          0.00017079	          0.00000000	         -3.81822756	          0.00000000	          0.00000000	          0.00554124	          0.00000000	
          1.59300000	         40.60896315	        936.74929555	         80.38036363	         -0.24188555	          0.00000000	         -0.06432487	         -0.02175831	          0.59958234	          0.02305398	          0.00032621	          0.00000000	          0.00017742	          0.00000000	         -3.80894342	          0.00000000	          0.00000000	          0.00604689	          0.00000000	
          1.59400000	         41.20020635	        938.19803342	         80.67016873	         -0.24144788	          0.00000000	         -0.06444134	         -0.02380141	          0.63012340	          0.02384329	          0.00033843	          0.00000000	          0.00018394	          0.00000000	         -3.79987765	          0.00000000	          0.00000000	          0.00657455	          0.00000000	
          1.59500000	         41.79139208	        939.65309539	         80.95372607	         -0.24101145	          0.00000000	         -0.06455640	         -0.02593606	          0.66090013	          0.02460747	          0.00035038	          0.00000000	          0.00019030	          0.00000000	         -3.79105268	          0.00000000	          0.00000000	          0.00712410	          0.00000000	
          1.59600000	         42.38243740	        941.11412001	         81.23095009	         -0.24057635	          0.00000000	         -0.06466997	         -0.02816197	          0.69180733	          0.02534105	          0.00036200	          0.00000000	          0.00019646	          0.00000000	         -3.78249011	          0.00000000	          0.00000000	          0.00769529	          0.00000000	
          1.59700000	         42.97326413	        942.58073976	         81.50176174	         -0.24014267	          0.00000000	         -0.06478202	         -0.03047841	          0.72272948	          0.02603813	          0.00037321	          0.00000000	          0.00020239	          0.00000000	         -3.77421060	          0.00000000	          0.00000000	          0.00828777	          0.00000000	
          1.59800000	         43.56380046	        944.05258156	         81.76608827	         -0.23971050	          0.00000000	         -0.06489248	         -0.03288424	          0.75354027	          0.02669245	          0.00038391	          0.00000000	          0.00020803	          0.00000000	         -3.76623389	          0.00000000	          0.00000000	          0.00890109	          0.00000000	
          1.59900000	         44.15398321	        945.52926717	         82.02386334	         -0.23927992	          0.00000000	         -0.06500130	         -0.03537782	          0.78410210	          0.02729734	          0.00039402	          0.00000000	          0.00021333	          0.00000000	         -3.75857892	          0.00000000	          0.00000000	          0.00953463	          0.00000000	
          1.60000000	         44.74376114	        947.01041361	         82.27502694	         -0.23885102	          0.00000000	         -0.06510843	         -0.03795701	          0.81426562	          0.02784570	          0.00040344	          0.00000000	          0.00021825	          0.00000000	         -3.75126404	          0.00000000	          0.00000000	          0.01018767	          0.00000000	
